<?xml version="1.0" standalone="no"?>
<!DOCTYPE svg PUBLIC "-//W3C//DTD SVG 20010904//EN"
 "http://www.w3.org/TR/2001/REC-SVG-20010904/DTD/svg10.dtd">
<svg version="1.0" xmlns="http://www.w3.org/2000/svg"
 width="512.000000pt" height="512.000000pt" viewBox="0 0 512.000000 512.000000"
 preserveAspectRatio="xMidYMid meet">

<g transform="translate(0.000000,512.000000) scale(0.100000,-0.100000)"
fill="#000000" stroke="none">
<path d="M2489 4167 c-66 -35 -102 -93 -107 -171 -3 -49 0 -71 16 -102 28 -55
72 -93 123 -108 l44 -13 247 -419 248 -419 0 -168 c0 -179 9 -219 50 -232 17
-5 20 -15 20 -71 l0 -64 -1261 0 -1262 0 -32 -34 -32 -34 -110 -4 c-88 -2
-115 -7 -130 -20 -14 -13 -37 -18 -82 -18 -57 0 -66 3 -91 30 -35 37 -72 39
-105 5 l-25 -24 0 -301 0 -301 25 -24 c33 -34 70 -32 105 5 25 27 34 30 90 30
47 0 68 -5 87 -20 22 -17 41 -20 134 -20 l109 0 0 -64 c0 -49 5 -69 21 -90 27
-34 79 -36 109 -4 19 21 20 33 20 380 l0 358 965 0 965 0 0 -585 0 -585 -965
0 -965 0 0 74 c0 41 -3 82 -6 91 -10 26 -63 45 -93 34 -45 -18 -50 -36 -51
-166 0 -116 1 -123 26 -152 l26 -31 1843 0 1844 0 28 24 c28 24 28 25 31 164
4 155 -6 194 -54 212 -14 6 -122 10 -240 10 l-214 0 0 95 0 94 341 3 341 3 29
33 c27 30 29 38 29 117 l0 85 59 0 58 0 6 -40 c7 -51 29 -85 70 -110 26 -16
51 -20 137 -20 119 0 154 14 190 72 19 31 20 51 20 323 0 324 -3 338 -69 382
-30 20 -46 23 -140 23 -87 0 -112 -3 -138 -20 -41 -25 -63 -59 -70 -110 l-6
-40 -58 0 -59 0 0 48 c0 27 -7 57 -16 70 -36 52 -39 52 -524 52 l-450 0 0 58
c0 53 3 60 30 80 41 31 50 74 50 251 l0 155 243 413 c198 337 247 414 267 419
153 37 216 219 117 339 -65 79 -10 75 -938 75 l-826 0 -44 -23z m1683 -139
c30 -24 31 -56 4 -83 -25 -25 -26 -25 -202 -25 -169 0 -179 -1 -201 -22 -28
-26 -30 -67 -4 -99 17 -21 30 -25 114 -29 l95 -5 -217 -368 -216 -367 -185 2
-185 3 -215 365 -216 365 384 5 384 5 19 24 c25 30 24 62 -2 95 l-20 26 -468
0 c-406 0 -469 2 -489 16 -26 18 -29 60 -5 86 15 17 54 18 813 18 622 0 800
-3 812 -12z m-662 -1253 l0 -105 -150 0 -150 0 0 105 0 105 150 0 150 0 0
-105z m-70 -315 l0 -60 -80 0 -80 0 0 53 c0 30 3 57 7 60 3 4 39 7 80 7 l73 0
0 -60z m-558 -308 c5 -110 20 -147 72 -178 29 -18 59 -19 391 -22 230 -2 373
0 395 7 20 6 49 24 65 41 29 30 30 35 33 141 l4 109 49 0 49 0 0 -285 0 -285
-77 0 c-60 0 -86 -5 -110 -20 -58 -35 -68 -61 -72 -197 l-3 -123 -91 0 c-79 0
-94 -3 -114 -22 -13 -12 -23 -30 -23 -40 0 -16 -10 -18 -95 -18 -93 0 -95 0
-101 25 -13 51 -31 55 -261 55 l-213 0 0 455 0 455 49 0 48 0 5 -98z m808 28
l0 -70 -325 0 -325 0 0 70 0 70 325 0 325 0 0 -70z m740 -215 l0 -285 -165 0
-165 0 0 285 0 285 165 0 165 0 0 -285z m-3880 30 l0 -175 -65 0 -65 0 0 175
0 175 65 0 65 0 0 -175z m4150 5 l0 -80 -55 0 -55 0 0 80 0 80 55 0 55 0 0
-80z"/>
<path d="M3176 1829 c-34 -27 -37 -86 -5 -115 19 -17 38 -19 196 -19 172 0
175 0 194 24 26 32 24 77 -6 106 -24 25 -27 25 -188 25 -151 0 -166 -2 -191
-21z"/>
<path d="M1038 3333 c-97 -101 -110 -227 -35 -339 18 -26 40 -59 49 -73 31
-46 22 -93 -28 -154 -46 -55 -19 -130 46 -130 28 0 42 8 77 49 95 107 96 238
4 358 -22 28 -42 63 -46 77 -7 29 10 74 51 129 29 39 26 74 -8 103 -33 28 -70
21 -110 -20z"/>
<path d="M1420 3332 c-49 -52 -73 -105 -78 -175 -5 -70 13 -123 68 -197 52
-70 55 -119 10 -175 -40 -50 -46 -79 -26 -111 38 -57 97 -47 149 24 43 60 57
101 57 172 0 69 -15 107 -69 179 -53 71 -55 108 -6 177 41 57 44 92 12 122
-36 34 -74 28 -117 -16z"/>
<path d="M1804 3333 c-53 -58 -77 -117 -78 -187 -1 -73 14 -113 68 -185 54
-71 56 -117 9 -181 -39 -52 -43 -98 -13 -125 49 -44 111 -11 166 88 24 44 29
63 29 122 -1 76 -17 117 -73 188 -52 65 -50 116 9 189 30 36 29 86 0 110 -38
30 -77 23 -117 -19z"/>
<path d="M2184 3324 c-48 -51 -74 -116 -74 -182 0 -66 17 -113 66 -178 56 -75
60 -122 14 -179 -17 -21 -33 -49 -37 -62 -13 -54 47 -102 99 -79 63 27 118
130 118 221 0 69 -20 118 -74 189 -48 64 -49 105 -1 172 40 56 43 81 14 118
-33 42 -74 36 -125 -20z"/>
<path d="M835 2115 c-14 -13 -25 -36 -25 -50 0 -14 11 -37 25 -50 23 -24 30
-25 143 -25 142 0 166 11 166 75 0 64 -24 75 -166 75 -113 0 -120 -1 -143 -25z"/>
<path d="M1292 2117 c-31 -33 -29 -80 4 -106 23 -18 41 -21 139 -21 98 0 116
3 139 21 34 27 36 77 3 107 -21 20 -34 22 -143 22 -113 0 -122 -1 -142 -23z"/>
<path d="M1762 2133 c-7 -3 -19 -18 -28 -35 -13 -25 -13 -35 -3 -59 6 -17 20
-34 30 -39 10 -6 70 -10 134 -10 110 0 117 1 140 25 14 13 25 36 25 50 0 14
-11 37 -25 50 -23 24 -30 25 -142 24 -65 0 -124 -3 -131 -6z"/>
<path d="M2205 2115 c-14 -13 -25 -36 -25 -50 0 -14 11 -37 25 -50 23 -24 30
-25 143 -25 142 0 166 11 166 75 0 64 -24 75 -166 75 -113 0 -120 -1 -143 -25z"/>
<path d="M835 1845 c-14 -13 -25 -36 -25 -50 0 -14 11 -37 25 -50 23 -24 30
-25 143 -25 142 0 166 11 166 75 0 64 -24 75 -166 75 -113 0 -120 -1 -143 -25z"/>
<path d="M1296 1849 c-19 -15 -26 -30 -26 -54 0 -24 7 -39 26 -54 23 -18 41
-21 139 -21 98 0 116 3 139 21 34 27 36 77 3 107 -21 20 -34 22 -139 22 -102
0 -118 -2 -142 -21z"/>
<path d="M1762 1863 c-7 -3 -19 -18 -28 -35 -13 -25 -13 -35 -3 -59 6 -17 20
-34 30 -39 10 -6 70 -10 134 -10 110 0 117 1 140 25 14 13 25 36 25 50 0 14
-11 37 -25 50 -23 24 -30 25 -142 24 -65 0 -124 -3 -131 -6z"/>
<path d="M2205 1845 c-14 -13 -25 -36 -25 -50 0 -14 11 -37 25 -50 23 -24 30
-25 143 -25 142 0 166 11 166 75 0 64 -24 75 -166 75 -113 0 -120 -1 -143 -25z"/>
<path d="M835 1575 c-14 -13 -25 -36 -25 -50 0 -14 11 -37 25 -50 23 -24 30
-25 143 -25 142 0 166 11 166 75 0 64 -24 75 -166 75 -113 0 -120 -1 -143 -25z"/>
<path d="M1296 1579 c-19 -15 -26 -30 -26 -54 0 -24 7 -39 26 -54 24 -19 40
-21 144 -21 109 0 118 2 138 23 31 33 29 80 -4 106 -23 18 -41 21 -139 21 -98
0 -116 -3 -139 -21z"/>
<path d="M1762 1593 c-7 -3 -19 -18 -28 -35 -13 -25 -13 -35 -3 -59 6 -17 20
-34 30 -39 10 -6 70 -10 134 -10 110 0 117 1 140 25 14 13 25 36 25 50 0 14
-11 37 -25 50 -23 24 -30 25 -142 24 -65 0 -124 -3 -131 -6z"/>
<path d="M2205 1575 c-14 -13 -25 -36 -25 -50 0 -14 11 -37 25 -50 23 -24 30
-25 143 -25 142 0 166 11 166 75 0 64 -24 75 -166 75 -113 0 -120 -1 -143 -25z"/>
</g>
</svg>
